<?xml version="1.0" standalone="no"?>
<!DOCTYPE svg PUBLIC "-//W3C//DTD SVG 20010904//EN"
 "http://www.w3.org/TR/2001/REC-SVG-20010904/DTD/svg10.dtd">
<svg version="1.0" xmlns="http://www.w3.org/2000/svg"
 width="1080.000000pt" height="1080.000000pt" viewBox="0 0 1080.000000 1080.000000"
 preserveAspectRatio="xMidYMid meet">

<g transform="translate(0.000000,1080.000000) scale(0.100000,-0.100000)"
fill="#000000" stroke="none">
<path d="M5052 7340 c-150 -68 -344 -403 -669 -1155 -130 -302 -335 -806 -330
-811 3 -3 17 26 31 63 106 266 236 579 270 647 50 99 74 116 135 96 23 -7 44
-17 47 -22 10 -16 -28 -122 -205 -565 -190 -474 -391 -955 -446 -1063 -46 -90
-80 -129 -108 -123 -12 3 -30 13 -39 21 -33 28 -16 91 108 406 52 131 93 240
91 242 -2 2 -21 -40 -42 -94 -247 -627 -469 -1100 -574 -1222 -33 -38 -41 -43
-54 -32 -49 41 -79 232 -127 817 -46 557 -79 781 -142 974 -84 252 -232 332
-403 219 -50 -33 -324 -298 -308 -298 22 0 241 135 358 221 22 16 54 32 71 35
89 17 166 -163 213 -498 19 -138 27 -225 71 -783 42 -525 88 -730 180 -792 50
-34 132 -32 191 5 194 124 458 669 1092 2262 324 813 483 1152 607 1293 35 41
54 46 65 20 4 -10 11 -153 16 -318 8 -297 23 -452 54 -576 67 -268 163 -447
324 -609 l84 -85 -80 85 c-97 105 -150 182 -209 303 -49 102 -64 174 -44 212
30 56 77 39 109 -41 55 -134 159 -319 191 -339 6 -4 -10 23 -35 59 -169 241
-244 586 -245 1121 0 207 -24 291 -91 325 -48 25 -102 25 -157 0z"/>
<path d="M5590 5817 c0 -1 35 -36 78 -77 l77 -75 -75 78 c-69 71 -80 82 -80
74z"/>
<path d="M5750 5666 c0 -2 8 -10 18 -17 15 -13 16 -12 3 4 -13 16 -21 21 -21
13z"/>
<path d="M5630 5606 c0 -2 8 -10 18 -17 15 -13 16 -12 3 4 -13 16 -21 21 -21
13z"/>
<path d="M4017 5293 c-15 -37 -25 -68 -23 -70 2 -2 16 26 30 63 15 36 25 68
23 70 -2 2 -16 -26 -30 -63z"/>
<path d="M3961 5154 c-12 -31 -20 -59 -17 -61 2 -2 14 21 25 53 12 31 20 58
18 61 -2 2 -14 -22 -26 -53z"/>
<path d="M5042 5045 c-75 -33 -203 -198 -326 -423 -31 -56 -106 -211 -167
-344 -60 -134 -119 -252 -130 -264 -17 -18 -22 -39 -26 -111 -4 -85 -3 -89 22
-113 38 -36 128 -35 207 2 31 14 81 31 110 37 56 12 132 52 183 96 24 20 19
19 -25 -8 -62 -39 -126 -64 -136 -54 -4 3 16 31 44 62 28 31 68 90 89 132 32
64 38 87 38 141 0 55 -3 66 -24 83 -50 41 -173 9 -235 -60 -18 -19 -46 -29
-46 -15 0 3 67 72 148 152 154 153 245 273 302 394 56 122 77 259 44 292 -19
19 -29 19 -72 1z m66 -60 c10 -85 -65 -265 -169 -406 -72 -98 -249 -279 -256
-262 -7 20 235 485 320 613 64 96 99 114 105 55z m-322 -763 c23 -15 25 -51 5
-108 -43 -122 -147 -258 -189 -247 -34 8 -72 60 -72 96 0 69 88 201 165 248
31 19 71 24 91 11z m-265 -314 c7 -13 25 -35 42 -49 l30 -25 -24 -17 c-25 -18
-47 -21 -73 -11 -11 4 -16 19 -16 49 0 73 18 96 41 53z"/>
<path d="M4282 4488 c-6 -7 -13 -25 -17 -40 -6 -25 -4 -27 31 -34 39 -7 60 1
78 29 17 26 -5 51 -46 55 -20 2 -39 -3 -46 -10z"/>
<path d="M4203 4298 c-16 -8 -23 -20 -23 -40 0 -16 -34 -108 -76 -206 -42 -97
-78 -191 -81 -208 -15 -92 77 -104 182 -24 28 21 75 61 105 90 l55 52 -85 -65
c-98 -73 -126 -90 -140 -82 -20 12 -8 49 75 247 81 190 84 202 70 225 -17 25
-45 29 -82 11z"/>
<path d="M5776 4284 c-53 -19 -134 -81 -187 -144 -24 -29 -60 -70 -80 -91 -20
-21 -32 -42 -28 -46 5 -5 2 -31 -7 -58 -32 -104 0 -181 74 -179 60 2 114 37
207 136 90 96 93 95 54 -7 -27 -72 -21 -111 17 -125 45 -18 96 5 184 81 76 66
82 70 95 52 13 -16 14 -15 15 18 0 19 6 41 13 49 6 7 -19 -14 -57 -48 -81 -71
-145 -108 -170 -99 -24 9 -21 17 90 249 52 108 94 204 94 212 0 13 -9 14 -47
10 -27 -4 -54 -12 -62 -20 -11 -10 -20 -9 -50 7 -42 22 -100 24 -155 3z m152
-46 c16 -34 8 -50 -91 -197 -115 -169 -198 -237 -244 -200 -44 37 25 219 125
330 72 79 106 100 157 97 32 -2 42 -8 53 -30z"/>
<path d="M5132 4274 c-13 -9 -21 -22 -18 -30 8 -20 -61 -184 -90 -215 -15 -15
-22 -32 -19 -41 4 -9 -12 -59 -35 -112 -22 -53 -38 -101 -35 -106 10 -17 71
-11 87 8 8 9 34 51 58 92 140 243 282 399 306 336 3 -7 -11 -55 -30 -106 -43
-109 -44 -124 -11 -146 24 -16 27 -15 65 10 22 14 40 29 40 32 0 3 -10 -2 -22
-10 -51 -36 -50 -13 3 111 48 113 56 151 36 177 -11 15 -21 17 -52 12 -29 -6
-55 -24 -109 -79 -40 -40 -88 -92 -108 -117 -20 -25 -38 -43 -41 -40 -3 3 13
47 34 98 38 89 39 95 24 118 -18 28 -51 31 -83 8z"/>
<path d="M7672 4118 c-10 -30 -10 -31 3 -14 13 17 21 46 12 46 -1 0 -8 -15
-15 -32z"/>
<path d="M7364 4082 c-12 -8 -38 -52 -30 -52 3 0 14 14 26 30 22 31 23 35 4
22z"/>
<path d="M7195 4010 c-3 -5 -1 -10 4 -10 6 0 11 5 11 10 0 6 -2 10 -4 10 -3 0
-8 -4 -11 -10z"/>
<path d="M6585 3931 c-3 -5 -1 -12 5 -16 5 -3 10 1 10 9 0 18 -6 21 -15 7z"/>
<path d="M6710 3930 c0 -5 5 -10 11 -10 5 0 7 5 4 10 -3 6 -8 10 -11 10 -2 0
-4 -4 -4 -10z"/>
<path d="M7009 3918 c-12 -22 -11 -22 7 -8 10 8 20 15 22 16 2 1 -1 5 -7 8 -5
4 -15 -4 -22 -16z"/>
</g>
</svg>
