<?xml version="1.0" standalone="no"?>
<!DOCTYPE svg PUBLIC "-//W3C//DTD SVG 20010904//EN"
 "http://www.w3.org/TR/2001/REC-SVG-20010904/DTD/svg10.dtd">
<svg version="1.0" xmlns="http://www.w3.org/2000/svg"
 width="1080.000000pt" height="1080.000000pt" viewBox="0 0 1080.000000 1080.000000"
 preserveAspectRatio="xMidYMid meet">

<g transform="translate(0.000000,1080.000000) scale(0.100000,-0.100000)"
fill="#000000" stroke="none">
<path d="M0 5400 l0 -5400 5400 0 5400 0 0 5400 0 5400 -5400 0 -5400 0 0
-5400z m5875 3290 c635 -75 1191 -302 1694 -692 130 -102 431 -399 533 -528
432 -547 689 -1208 725 -1868 3 -67 8 -122 9 -122 2 0 63 12 135 26 72 14 133
23 135 21 2 -2 -53 -17 -122 -32 -70 -16 -133 -35 -140 -43 -10 -10 -14 -47
-14 -142 0 -632 -233 -1328 -627 -1868 -743 -1019 -1975 -1529 -3218 -1331
-1259 201 -2304 1124 -2659 2350 -234 807 -152 1688 226 2427 257 504 629 927
1093 1244 478 326 1002 512 1605 568 117 11 503 5 625 -10z m3272 -3156 c-3
-3 -12 -4 -19 -1 -8 3 -5 6 6 6 11 1 17 -2 13 -5z"/>
<path d="M5320 8663 c-1202 -71 -2274 -803 -2783 -1900 -326 -704 -390 -1502
-181 -2257 60 -219 154 -455 256 -646 491 -918 1368 -1547 2384 -1709 1742
-277 3386 867 3734 2599 37 183 60 402 60 570 0 120 -1 131 -17 126 -92 -27
-622 -122 -868 -156 -393 -53 -853 -73 -1145 -51 -636 49 -1066 234 -1321 570
-65 87 -158 272 -166 334 -15 121 70 143 116 31 131 -322 305 -513 596 -654
245 -119 517 -182 907 -210 458 -32 1117 21 1812 147 l89 16 -7 120 c-54 1010
-608 1967 -1466 2532 -595 391 -1294 580 -2000 538z m-816 -2488 c35 -15 37
-18 31 -48 -23 -103 -551 -1400 -650 -1597 -46 -90 -80 -129 -108 -123 -78 19
-73 66 38 347 34 89 88 226 120 306 71 183 240 603 312 780 114 279 155 350
201 350 11 0 36 -7 56 -15z m2086 -1878 c33 -16 38 -52 10 -67 -18 -10 -26 -7
-57 20 -48 43 -81 36 -149 -31 -91 -90 -170 -256 -162 -341 6 -66 104 -72 225
-12 69 33 150 107 158 144 10 46 76 140 135 193 81 73 122 91 207 92 62 0 75
-3 97 -24 70 -66 52 -221 -41 -351 l-18 -25 35 24 c19 14 73 53 120 87 92 68
81 51 158 235 2 4 -5 9 -15 11 -14 3 -11 9 17 26 47 29 85 29 105 -2 15 -23
13 -29 -31 -127 -25 -57 -48 -107 -51 -111 -2 -5 -2 -8 0 -8 3 0 28 30 55 68
51 68 137 156 182 186 32 21 88 21 112 -1 24 -22 23 -79 -2 -145 l-20 -53 28
35 c93 120 171 180 234 180 29 0 41 -6 54 -25 29 -44 14 -108 -59 -261 -81
-170 -89 -192 -77 -199 16 -10 61 19 164 107 54 45 113 94 130 108 l31 25 -16
-25 c-24 -38 -239 -230 -281 -251 -53 -27 -124 -26 -139 2 -19 36 -5 88 66
240 37 79 69 159 72 177 19 115 -167 -87 -297 -323 -60 -108 -67 -115 -111
-115 -23 0 -42 5 -45 13 -2 7 36 103 86 212 94 210 104 245 70 245 -48 0 -172
-153 -292 -357 l-60 -103 -54 0 c-30 0 -54 2 -54 4 0 2 23 57 50 121 28 64 50
119 50 121 0 2 -44 -29 -99 -70 -54 -40 -111 -76 -127 -80 -15 -4 -45 -21 -66
-38 -142 -112 -318 -77 -318 63 l0 49 -57 -47 c-88 -71 -189 -115 -279 -121
-126 -8 -161 22 -148 127 16 127 159 317 287 381 66 33 142 40 187 17z"/>
<path d="M6910 4255 c-50 -27 -170 -216 -170 -267 0 -34 36 -77 79 -95 34 -15
36 -14 59 13 35 43 99 181 117 252 15 58 15 66 0 88 -17 27 -47 30 -85 9z"/>
<path d="M6706 3918 c-3 -13 -6 -42 -6 -65 0 -54 23 -70 72 -50 18 8 39 22 47
31 13 15 13 19 0 27 -8 5 -19 9 -26 9 -7 0 -27 16 -46 35 -34 35 -35 35 -41
13z"/>
</g>
</svg>
